<?xml version="1.0" encoding="UTF-8" standalone="no"?>
<!DOCTYPE svg PUBLIC "-//W3C//DTD SVG 1.1//EN"
 "http://www.w3.org/Graphics/SVG/1.1/DTD/svg11.dtd">
<!-- Generated by graphviz version 14.1.4 (20260321.0153)
 -->
<!-- Pages: 1 -->
<svg width="309pt" height="205pt"
 viewBox="0.00 0.00 309.00 205.00" xmlns="http://www.w3.org/2000/svg" xmlns:xlink="http://www.w3.org/1999/xlink">
<g id="graph0" class="graph" transform="scale(1 1) rotate(0) translate(4 201.16)">
<polygon fill="white" stroke="none" points="-4,4 -4,-201.16 304.61,-201.16 304.61,4 -4,4"/>
<!-- &#45;1 -->
<g id="node1" class="node">
<title>&#45;1</title>
<polygon fill="lightgray" stroke="black" points="23.5,-107.83 0,-107.83 0,-89.33 23.5,-89.33 23.5,-107.83"/>
<text xml:space="preserve" text-anchor="middle" x="11.75" y="-95.28" font-family="Times New Roman,serif" font-size="9.00">&#45;1</text>
</g>
<!-- 131 -->
<g id="node7" class="node">
<title>131</title>
<ellipse fill="white" stroke="black" cx="59.75" cy="-20.86" rx="20.86" ry="20.86"/>
<text xml:space="preserve" text-anchor="middle" x="59.75" y="-17.56" font-family="Times New Roman,serif" font-size="9.00">131</text>
</g>
<!-- &#45;1&#45;&gt;131 -->
<g id="edge4" class="edge">
<title>&#45;1&#45;&gt;131</title>
<path fill="none" stroke="red" stroke-width="0.24" stroke-dasharray="1,5" d="M17.26,-88.89C23.62,-78.86 34.38,-61.88 43.48,-47.52"/>
<polygon fill="red" stroke="red" stroke-width="0.24" points="46.29,-49.63 48.69,-39.31 40.38,-45.88 46.29,-49.63"/>
</g>
<!-- &#45;2 -->
<g id="node2" class="node">
<title>&#45;2</title>
<polygon fill="lightgray" stroke="black" points="180.5,-185.55 157,-185.55 157,-167.05 180.5,-167.05 180.5,-185.55"/>
<text xml:space="preserve" text-anchor="middle" x="168.75" y="-173" font-family="Times New Roman,serif" font-size="9.00">&#45;2</text>
</g>
<!-- 240 -->
<g id="node9" class="node">
<title>240</title>
<ellipse fill="white" stroke="black" cx="168.75" cy="-98.58" rx="20.86" ry="20.86"/>
<text xml:space="preserve" text-anchor="middle" x="168.75" y="-95.28" font-family="Times New Roman,serif" font-size="9.00">240</text>
</g>
<!-- &#45;2&#45;&gt;240 -->
<g id="edge5" class="edge">
<title>&#45;2&#45;&gt;240</title>
<path fill="none" stroke="green" stroke-width="0.41" d="M168.75,-166.61C168.75,-157.75 168.75,-143.48 168.75,-130.38"/>
<polygon fill="green" stroke="green" stroke-width="0.41" points="172.25,-130.41 168.75,-120.41 165.25,-130.41 172.25,-130.41"/>
</g>
<!-- &#45;3 -->
<g id="node3" class="node">
<title>&#45;3</title>
<polygon fill="lightgray" stroke="black" points="28.5,-185.55 5,-185.55 5,-167.05 28.5,-167.05 28.5,-185.55"/>
<text xml:space="preserve" text-anchor="middle" x="16.75" y="-173" font-family="Times New Roman,serif" font-size="9.00">&#45;3</text>
</g>
<!-- 0 -->
<g id="node6" class="node">
<title>0</title>
<ellipse fill="lightblue" stroke="black" cx="55.75" cy="-98.58" rx="14.5" ry="14.5"/>
<text xml:space="preserve" text-anchor="middle" x="55.75" y="-95.28" font-family="Times New Roman,serif" font-size="9.00">0</text>
</g>
<!-- &#45;3&#45;&gt;0 -->
<g id="edge1" class="edge">
<title>&#45;3&#45;&gt;0</title>
<path fill="none" stroke="red" stroke-width="0.15" stroke-dasharray="1,5" d="M21.22,-166.61C26.96,-155.48 37.09,-135.82 44.9,-120.65"/>
<polygon fill="red" stroke="red" stroke-width="0.15" points="47.83,-122.61 49.29,-112.11 41.6,-119.4 47.83,-122.61"/>
</g>
<!-- &#45;4 -->
<g id="node4" class="node">
<title>&#45;4</title>
<polygon fill="lightgray" stroke="black" points="70.5,-185.55 47,-185.55 47,-167.05 70.5,-167.05 70.5,-185.55"/>
<text xml:space="preserve" text-anchor="middle" x="58.75" y="-173" font-family="Times New Roman,serif" font-size="9.00">&#45;4</text>
</g>
<!-- &#45;4&#45;&gt;0 -->
<g id="edge2" class="edge">
<title>&#45;4&#45;&gt;0</title>
<path fill="none" stroke="green" stroke-width="1.3" d="M58.41,-166.61C58.01,-156.58 57.34,-139.6 56.77,-125.25"/>
<polygon fill="green" stroke="green" stroke-width="1.3" points="60.27,-125.36 56.38,-115.51 53.28,-125.64 60.27,-125.36"/>
</g>
<!-- &#45;5 -->
<g id="node5" class="node">
<title>&#45;5</title>
<polygon fill="lightgray" stroke="black" points="115.5,-185.55 92,-185.55 92,-167.05 115.5,-167.05 115.5,-185.55"/>
<text xml:space="preserve" text-anchor="middle" x="103.75" y="-173" font-family="Times New Roman,serif" font-size="9.00">&#45;5</text>
</g>
<!-- &#45;5&#45;&gt;0 -->
<g id="edge3" class="edge">
<title>&#45;5&#45;&gt;0</title>
<path fill="none" stroke="red" stroke-width="1.31" d="M98.24,-166.61C91.31,-155.67 79.14,-136.48 69.6,-121.43"/>
<polygon fill="red" stroke="red" stroke-width="1.31" points="72.6,-119.62 64.29,-113.05 66.69,-123.37 72.6,-119.62"/>
</g>
<!-- 396 -->
<g id="node8" class="node">
<title>396</title>
<ellipse fill="white" stroke="black" cx="108.75" cy="-98.58" rx="20.86" ry="20.86"/>
<text xml:space="preserve" text-anchor="middle" x="108.75" y="-95.28" font-family="Times New Roman,serif" font-size="9.00">396</text>
</g>
<!-- &#45;5&#45;&gt;396 -->
<g id="edge6" class="edge">
<title>&#45;5&#45;&gt;396</title>
<path fill="none" stroke="green" stroke-width="0.12" stroke-dasharray="1,5" d="M104.32,-166.61C104.92,-157.57 105.89,-142.91 106.77,-129.59"/>
<polygon fill="green" stroke="green" stroke-width="0.12" points="110.24,-130.18 107.4,-119.97 103.25,-129.72 110.24,-130.18"/>
</g>
<!-- 396&#45;&gt;131 -->
<g id="edge7" class="edge">
<title>396&#45;&gt;131</title>
<path fill="none" stroke="green" stroke-width="0.17" stroke-dasharray="1,5" d="M97.63,-80.4C91.3,-70.62 83.26,-58.19 76.21,-47.3"/>
<polygon fill="green" stroke="green" stroke-width="0.17" points="79.34,-45.69 70.97,-39.2 73.46,-49.49 79.34,-45.69"/>
</g>
<!-- 532 -->
<g id="node10" class="node">
<title>532</title>
<ellipse fill="white" stroke="black" cx="219.75" cy="-176.3" rx="20.86" ry="20.86"/>
<text xml:space="preserve" text-anchor="middle" x="219.75" y="-173" font-family="Times New Roman,serif" font-size="9.00">532</text>
</g>
<!-- 281 -->
<g id="node11" class="node">
<title>281</title>
<ellipse fill="white" stroke="black" cx="279.75" cy="-176.3" rx="20.86" ry="20.86"/>
<text xml:space="preserve" text-anchor="middle" x="279.75" y="-173" font-family="Times New Roman,serif" font-size="9.00">281</text>
</g>
</g>
</svg>
